<?xml version="1.0" encoding="utf-8"?>
<!-- Generator: Adobe Illustrator 16.0.0, SVG Export Plug-In . SVG Version: 6.00 Build 0)  -->
<!DOCTYPE svg PUBLIC "-//W3C//DTD SVG 1.1//EN" "http://www.w3.org/Graphics/SVG/1.1/DTD/svg11.dtd">
<svg version="1.1" id="Layer_1" xmlns="http://www.w3.org/2000/svg" xmlns:xlink="http://www.w3.org/1999/xlink" x="0px" y="0px"
	 width="80.94px" height="80.94px" viewBox="-375.06 -103.871 80.94 80.94" enable-background="new -375.06 -103.871 80.94 80.94"
	 xml:space="preserve">
<path d="M-334.595-103.826c-22.349,0-40.465,18.116-40.465,40.465c0,22.349,18.116,40.464,40.465,40.464
	c22.347,0,40.464-18.116,40.464-40.464C-294.13-85.71-312.248-103.826-334.595-103.826z M-334.595-28.119
	c-19.465,0-35.243-15.778-35.243-35.243c0-19.465,15.778-35.243,35.243-35.243c19.463,0,35.243,15.778,35.243,35.243
	C-299.352-43.897-315.131-28.119-334.595-28.119z"/>
<rect x="-351.781" y="-70.631" width="7.904" height="25.535"/>
<ellipse cx="-347.867" cy="-78.687" rx="4.674" ry="4.712"/>
<path d="M-331.242-58.5c0-3.59,1.652-5.729,4.816-5.729c2.906,0,4.303,2.053,4.303,5.729c0,3.678,0,13.404,0,13.404h7.867
	c0,0,0-9.328,0-16.168s-3.877-10.146-9.291-10.146c-5.416,0-7.695,4.219-7.695,4.219v-3.439h-7.582v25.535h7.582
	C-331.242-45.096-331.242-54.566-331.242-58.5z"/>
</svg>
