<?xml version="1.0" encoding="utf-8"?>
<!-- Generator: Adobe Illustrator 16.0.0, SVG Export Plug-In . SVG Version: 6.00 Build 0)  -->
<!DOCTYPE svg PUBLIC "-//W3C//DTD SVG 1.1//EN" "http://www.w3.org/Graphics/SVG/1.1/DTD/svg11.dtd">
<svg version="1.1" id="Layer_1" xmlns="http://www.w3.org/2000/svg" xmlns:xlink="http://www.w3.org/1999/xlink" x="0px" y="0px"
	 width="80.94px" height="80.94px" viewBox="-563.44 -103.871 80.94 80.94" enable-background="new -563.44 -103.871 80.94 80.94"
	 xml:space="preserve">
<path fill-rule="evenodd" clip-rule="evenodd" d="M-522.97-22.931c-22.351,0-40.471-18.12-40.471-40.471s18.12-40.47,40.471-40.47
	s40.47,18.119,40.47,40.47S-500.619-22.931-522.97-22.931z M-522.97-98.499c-19.384,0-35.098,15.714-35.098,35.098
	c0,15.791,10.43,29.146,24.775,33.555c-0.006-0.804,0.005-5.657-0.006-6.507c-0.077-0.047-8.229,2.389-11.735-3.489
	c-0.557-0.956-1.462-4.314-3.907-6.172c-0.087-0.073-1.893-0.991-2.059-1.893c-0.019-0.125,0.116-0.389,0.294-0.454
	c0.185-0.069,3.158-1.283,6.47,2.9c0.999,1.399,3.253,6.77,11.146,3.452c0.211-0.827,0.634-2.735,3.141-3.257
	c-11.752-1.397-17.118-5.857-18.785-15.857c-1.04-6.817,0.959-12.483,3.963-15.28c-0.456-0.595-1.955-5.576,0.376-10.845
	c2.524-0.504,7.157,1.3,11.228,4.218c5.743-2.064,16.522-1.528,20.381,0c1.833-1.509,8.38-5.034,11.19-4.211
	c0.825,2.092,2.016,7.16,0.37,10.854c3.658,3.749,4.69,8.587,4.03,14.532c-0.808,9.007-6.353,15.444-18.806,16.506
	c3.137,2.151,3.275,5.52,3.384,6.848c0.026,3.098-0.036,7.312,0.003,8.646c14.329-4.419,24.742-17.766,24.742-33.545
	C-487.872-82.785-503.586-98.499-522.97-98.499z"/>
</svg>
