<?xml version="1.0" encoding="utf-8"?>
<!-- Generator: Adobe Illustrator 22.1.0, SVG Export Plug-In . SVG Version: 6.00 Build 0)  -->
<svg version="1.1" id="Layer_1" xmlns="http://www.w3.org/2000/svg" xmlns:xlink="http://www.w3.org/1999/xlink" x="0px" y="0px"
	 viewBox="0 0 80.9 80.9" style="enable-background:new 0 0 80.9 80.9;" xml:space="preserve">
<path d="M40.5,0C18.1,0,0,18.1,0,40.5s18.1,40.5,40.5,40.5c22.3,0,40.5-18.1,40.5-40.5S62.8,0,40.5,0z M40.5,75.7
	C21,75.7,5.2,59.9,5.2,40.5S21,5.2,40.5,5.2c19.5,0,35.2,15.8,35.2,35.2S59.9,75.7,40.5,75.7z"/>
<path d="M62.8,24.6H17.9c-0.6,0-1.2,0.5-1.2,1.2v29.5c0,0.7,0.5,1.2,1.2,1.2h44.9c0.7,0,1.2-0.5,1.2-1.2V25.8
	C64,25.1,63.4,24.6,62.8,24.6 M59.9,27L40.3,46.6L20.8,27H59.9z M19.1,28.6L31,40.6L19.1,52.5C19.1,52.5,19.1,28.6,19.1,28.6z
	 M20.8,54.1l11.9-11.9l6.8,6.8c0.5,0.5,1.2,0.5,1.7,0l6.8-6.8l11.9,11.9C59.9,54.1,20.8,54.1,20.8,54.1z M61.6,52.5L49.7,40.6
	l11.9-11.9V52.5z"/>
</svg>
