<?xml version="1.0" encoding="utf-8"?>
<!-- Generator: Adobe Illustrator 16.0.0, SVG Export Plug-In . SVG Version: 6.00 Build 0)  -->
<!DOCTYPE svg PUBLIC "-//W3C//DTD SVG 1.1//EN" "http://www.w3.org/Graphics/SVG/1.1/DTD/svg11.dtd">
<svg version="1.1" id="Layer_1" xmlns="http://www.w3.org/2000/svg" xmlns:xlink="http://www.w3.org/1999/xlink" x="0px" y="0px"
	 width="80.94px" height="80.94px" viewBox="-469.5 -103.871 80.94 80.94" enable-background="new -469.5 -103.871 80.94 80.94"
	 xml:space="preserve">
<path d="M-429.019-103.826c-22.345,0-40.459,18.113-40.459,40.459s18.114,40.459,40.459,40.459
	c22.344,0,40.459-18.113,40.459-40.459S-406.674-103.826-429.019-103.826z M-429.019-28.129c-19.462,0-35.238-15.776-35.238-35.238
	s15.776-35.238,35.238-35.238c19.461,0,35.238,15.776,35.238,35.238S-409.558-28.129-429.019-28.129z"/>
<path d="M-449.842-47.065c4.121,2.642,9.014,4.184,14.271,4.184c17.286,0,27.051-14.601,26.463-27.696
	c1.819-1.311,3.398-2.951,4.646-4.819c-1.67,0.74-3.465,1.241-5.347,1.466c1.921-1.15,3.398-2.975,4.092-5.151
	c-1.799,1.067-3.792,1.842-5.911,2.261c-1.699-1.81-4.118-2.94-6.797-2.94c-6.009,0-10.425,5.608-9.069,11.432
	c-7.738-0.388-14.598-4.094-19.189-9.728c-2.439,4.186-1.266,9.661,2.881,12.431c-1.527-0.048-2.964-0.468-4.218-1.165
	c-0.1,4.314,2.99,8.347,7.468,9.247c-1.311,0.357-2.747,0.438-4.203,0.159c1.183,3.7,4.621,6.39,8.696,6.466
	C-439.972-47.852-444.902-46.482-449.842-47.065z"/>
</svg>
